<svg width="14" height="16" viewBox="0 0 14 16" fill="none" xmlns="http://www.w3.org/2000/svg">
<path d="M10.9904 3.48671H9.9699C9.8605 2.67569 9.46415 1.93071 8.85269 1.38681C8.24123 0.842897 7.45514 0.53606 6.6369 0.521912C5.81866 0.53606 5.03257 0.842897 4.42111 1.38681C3.80965 1.93071 3.4133 2.67569 3.3039 3.48671H2.2839C1.72269 3.48708 1.18456 3.71013 0.787648 4.10689C0.390736 4.50365 0.167483 5.0417 0.166901 5.60291V13.3184C0.167404 13.8796 0.390505 14.4176 0.787246 14.8144C1.18399 15.2112 1.72196 15.4345 2.2831 15.4351H10.9901C11.5513 15.4346 12.0895 15.2115 12.4863 14.8146C12.8832 14.4178 13.1064 13.8797 13.1069 13.3184V5.60291C13.1063 5.04179 12.8831 4.50382 12.4863 4.10707C12.0895 3.71032 11.5515 3.48721 10.9904 3.48671ZM6.6369 1.62151C7.16431 1.63298 7.67202 1.82408 8.07608 2.16323C8.48015 2.50238 8.75638 2.96927 8.8591 3.48671H4.4147C4.51742 2.96927 4.79365 2.50238 5.19772 2.16323C5.60178 1.82408 6.10949 1.63298 6.6369 1.62151ZM12.0069 13.3184C12.0066 13.588 11.8994 13.8464 11.7089 14.0371C11.5183 14.2278 11.2599 14.3351 10.9903 14.3355H2.2834C2.01384 14.3351 1.75546 14.2277 1.56491 14.0371C1.37436 13.8464 1.26719 13.588 1.2669 13.3184V5.60291C1.26722 5.33339 1.37443 5.075 1.56501 4.88442C1.75559 4.69384 2.01398 4.58663 2.2835 4.58631H10.9905C11.26 4.58668 11.5183 4.69391 11.7089 4.88449C11.8994 5.07506 12.0066 5.33343 12.0069 5.60291V13.3184Z" fill="black" fill-opacity="0.8"/>
</svg>
