<svg width="14" height="17" viewBox="0 0 14 17" fill="none" xmlns="http://www.w3.org/2000/svg">
<path d="M12.8798 6.14091C12.3589 6.45981 11.9274 6.90566 11.6258 7.43672C11.3241 7.96778 11.1621 8.56669 11.155 9.17741C11.1571 9.86476 11.3607 10.5364 11.7407 11.1092C12.1207 11.6819 12.6604 12.1306 13.2929 12.3997C13.0435 13.2043 12.6744 13.9668 12.1981 14.6615C11.5165 15.6427 10.8038 16.6238 9.71939 16.6238C8.63499 16.6238 8.35609 15.9938 7.10639 15.9938C5.88769 15.9938 5.45389 16.6445 4.46239 16.6445C3.47089 16.6445 2.77899 15.7356 1.98369 14.6202C0.933161 13.0576 0.355802 11.2252 0.320892 9.34261C0.320892 6.24421 2.33489 4.60211 4.31779 4.60211C5.37129 4.60211 6.24919 5.29401 6.91019 5.29401C7.54019 5.29401 8.52139 4.56071 9.71939 4.56071C10.3354 4.54481 10.9458 4.68063 11.4969 4.95619C12.048 5.23175 12.5229 5.6386 12.8798 6.14091ZM9.15139 3.24911C9.67949 2.62787 9.97844 1.84423 9.99829 1.02911C9.99919 0.921649 9.9888 0.814394 9.96729 0.709106C9.06015 0.79772 8.2213 1.23008 7.62279 1.91751C7.0896 2.51399 6.77939 3.2767 6.74489 4.07601C6.74529 4.17321 6.75568 4.27012 6.77589 4.36521C6.84741 4.37873 6.92001 4.38565 6.99279 4.38591C7.41087 4.35264 7.81781 4.23471 8.18889 4.03928C8.55997 3.84386 8.88744 3.57502 9.15139 3.24911Z" fill="black" fill-opacity="0.8"/>
</svg>
