<svg width="16" height="15" viewBox="0 0 16 15" fill="none" xmlns="http://www.w3.org/2000/svg">
<path d="M14.7949 13.6604L10.9249 9.79045C11.6259 8.86145 12.0469 7.70945 12.0469 6.45845C12.0469 3.39845 9.5579 0.908447 6.4969 0.908447C3.4369 0.908447 0.946899 3.39845 0.946899 6.45845C0.946899 9.51945 3.4369 12.0084 6.4969 12.0084C7.7479 12.0084 8.8999 11.5874 9.8289 10.8864L13.6989 14.7564C13.8499 14.9074 14.0489 14.9844 14.2469 14.9844C14.4449 14.9844 14.6429 14.9084 14.7949 14.7564C15.0979 14.4534 15.0979 13.9634 14.7949 13.6604ZM2.0469 6.45845C2.0469 4.00445 4.0439 2.00845 6.4969 2.00845C8.9509 2.00845 10.9469 4.00545 10.9469 6.45845C10.9469 8.91145 8.9509 10.9084 6.4969 10.9084C4.0429 10.9084 2.0469 8.91245 2.0469 6.45845Z" fill="black" fill-opacity="0.8"/>
</svg>
